<mxfile host="app.diagrams.net" agent="Mozilla/5.0 (Windows NT 10.0; Win64; x64) AppleWebKit/537.36 (KHTML, like Gecko) Chrome/137.0.0.0 Safari/537.36" version="27.1.6">
  <diagram name="Página-1" id="5Ipi0KLfQldOFnqfEt-a">
    <mxGraphModel dx="946" dy="563" grid="1" gridSize="10" guides="1" tooltips="1" connect="1" arrows="1" fold="1" page="1" pageScale="1" pageWidth="827" pageHeight="1169" math="0" shadow="0">
      <root>
        <mxCell id="0" />
        <mxCell id="1" parent="0" />
        <mxCell id="2cJFYLZIkoP5e17FHalm-1" value="Cierre_y_Reportes" style="whiteSpace=wrap;strokeWidth=2;" vertex="1" parent="1">
          <mxGeometry x="20" y="1121" width="348" height="656" as="geometry" />
        </mxCell>
        <mxCell id="2cJFYLZIkoP5e17FHalm-2" value="Votación_Propuesta" style="whiteSpace=wrap;strokeWidth=2;" vertex="1" parent="1">
          <mxGeometry x="388" y="640" width="348" height="1137" as="geometry" />
        </mxCell>
        <mxCell id="2cJFYLZIkoP5e17FHalm-3" value="Desarrollo de Sesión" style="whiteSpace=wrap;strokeWidth=2;" vertex="1" parent="1">
          <mxGeometry x="756" y="20" width="673" height="1757" as="geometry" />
        </mxCell>
        <mxCell id="2cJFYLZIkoP5e17FHalm-4" value="Preparación de Sesión" style="whiteSpace=wrap;strokeWidth=2;" vertex="1" parent="1">
          <mxGeometry x="1449" y="20" width="416" height="2249" as="geometry" />
        </mxCell>
        <mxCell id="2cJFYLZIkoP5e17FHalm-5" value="Cargar Datos de Sesión" style="rhombus;strokeWidth=2;whiteSpace=wrap;" vertex="1" parent="1">
          <mxGeometry x="1604" y="45" width="217" height="217" as="geometry" />
        </mxCell>
        <mxCell id="2cJFYLZIkoP5e17FHalm-6" value="Usuario Administrador" style="whiteSpace=wrap;strokeWidth=2;" vertex="1" parent="1">
          <mxGeometry x="1603" y="1827" width="218" height="54" as="geometry" />
        </mxCell>
        <mxCell id="2cJFYLZIkoP5e17FHalm-7" value="Módulo Gestión Sesiones" style="whiteSpace=wrap;strokeWidth=2;" vertex="1" parent="1">
          <mxGeometry x="1496" y="424" width="235" height="54" as="geometry" />
        </mxCell>
        <mxCell id="2cJFYLZIkoP5e17FHalm-8" value="Gestionar Integrantes" style="rhombus;strokeWidth=2;whiteSpace=wrap;" vertex="1" parent="1">
          <mxGeometry x="1608" y="1931" width="209" height="209" as="geometry" />
        </mxCell>
        <mxCell id="2cJFYLZIkoP5e17FHalm-9" value="Módulo Gestión Usuarios" style="whiteSpace=wrap;strokeWidth=2;" vertex="1" parent="1">
          <mxGeometry x="1595" y="2190" width="235" height="54" as="geometry" />
        </mxCell>
        <mxCell id="2cJFYLZIkoP5e17FHalm-10" value="Definir Pantalla Proyectada Quórum y Participaciones" style="whiteSpace=wrap;strokeWidth=2;" vertex="1" parent="1">
          <mxGeometry x="1484" y="753" width="260" height="102" as="geometry" />
        </mxCell>
        <mxCell id="2cJFYLZIkoP5e17FHalm-11" value="Módulo Participaciones y Quórum Admin" style="whiteSpace=wrap;strokeWidth=2;" vertex="1" parent="1">
          <mxGeometry x="1484" y="993" width="260" height="78" as="geometry" />
        </mxCell>
        <mxCell id="2cJFYLZIkoP5e17FHalm-12" value="Registrar Asistencia" style="rhombus;strokeWidth=2;whiteSpace=wrap;" vertex="1" parent="1">
          <mxGeometry x="834" y="708" width="193" height="193" as="geometry" />
        </mxCell>
        <mxCell id="2cJFYLZIkoP5e17FHalm-13" value="Usuario de Captura Integrantes" style="whiteSpace=wrap;strokeWidth=2;" vertex="1" parent="1">
          <mxGeometry x="955" y="115" width="260" height="78" as="geometry" />
        </mxCell>
        <mxCell id="2cJFYLZIkoP5e17FHalm-14" value="Módulo Participaciones y Quórum Admin/Consulta" style="whiteSpace=wrap;strokeWidth=2;" vertex="1" parent="1">
          <mxGeometry x="1037" y="993" width="260" height="78" as="geometry" />
        </mxCell>
        <mxCell id="2cJFYLZIkoP5e17FHalm-15" value="Solicitar Participación/Moción" style="rhombus;strokeWidth=2;whiteSpace=wrap;" vertex="1" parent="1">
          <mxGeometry x="1116" y="312" width="278" height="278" as="geometry" />
        </mxCell>
        <mxCell id="2cJFYLZIkoP5e17FHalm-16" value="Validar Restricciones Ronda/Moción" style="rhombus;strokeWidth=2;whiteSpace=wrap;" vertex="1" parent="1">
          <mxGeometry x="1116" y="665" width="278" height="278" as="geometry" />
        </mxCell>
        <mxCell id="2cJFYLZIkoP5e17FHalm-17" value="Usuario de Consulta Consejera Presidenta" style="whiteSpace=wrap;strokeWidth=2;" vertex="1" parent="1">
          <mxGeometry x="796" y="1246" width="260" height="78" as="geometry" />
        </mxCell>
        <mxCell id="2cJFYLZIkoP5e17FHalm-18" value="Visualizar Quórum y Solicitudes" style="rhombus;strokeWidth=2;whiteSpace=wrap;" vertex="1" parent="1">
          <mxGeometry x="956" y="1474" width="278" height="278" as="geometry" />
        </mxCell>
        <mxCell id="2cJFYLZIkoP5e17FHalm-19" value="Administrador Marca &#39;Uso de Voz&#39; y Oculta Rondas" style="rhombus;strokeWidth=2;whiteSpace=wrap;" vertex="1" parent="1">
          <mxGeometry x="1106" y="1146" width="278" height="278" as="geometry" />
        </mxCell>
        <mxCell id="2cJFYLZIkoP5e17FHalm-20" value="Emitir Voto" style="rhombus;strokeWidth=2;whiteSpace=wrap;" vertex="1" parent="1">
          <mxGeometry x="495" y="737" width="134" height="134" as="geometry" />
        </mxCell>
        <mxCell id="2cJFYLZIkoP5e17FHalm-21" value="Módulo de Votación" style="whiteSpace=wrap;strokeWidth=2;" vertex="1" parent="1">
          <mxGeometry x="462" y="1005" width="200" height="54" as="geometry" />
        </mxCell>
        <mxCell id="2cJFYLZIkoP5e17FHalm-22" value="Visualizar Resultados Votación" style="rhombus;strokeWidth=2;whiteSpace=wrap;" vertex="1" parent="1">
          <mxGeometry x="423" y="1474" width="278" height="278" as="geometry" />
        </mxCell>
        <mxCell id="2cJFYLZIkoP5e17FHalm-23" value="Generar Reportes Asistencias/Participaciones" style="rhombus;strokeWidth=2;whiteSpace=wrap;" vertex="1" parent="1">
          <mxGeometry x="55" y="1146" width="278" height="278" as="geometry" />
        </mxCell>
        <mxCell id="2cJFYLZIkoP5e17FHalm-24" value="Módulo de Reportes" style="whiteSpace=wrap;strokeWidth=2;" vertex="1" parent="1">
          <mxGeometry x="94" y="1586" width="201" height="54" as="geometry" />
        </mxCell>
        <mxCell id="2cJFYLZIkoP5e17FHalm-25" value="" style="curved=1;startArrow=none;endArrow=block;exitX=0.66;exitY=0.01;entryX=0.75;entryY=1;rounded=0;" edge="1" parent="1" source="2cJFYLZIkoP5e17FHalm-6" target="2cJFYLZIkoP5e17FHalm-5">
          <mxGeometry relative="1" as="geometry">
            <Array as="points">
              <mxPoint x="1779" y="1802" />
              <mxPoint x="1779" y="287" />
            </Array>
          </mxGeometry>
        </mxCell>
        <mxCell id="2cJFYLZIkoP5e17FHalm-26" value="" style="curved=1;startArrow=none;endArrow=block;exitX=0.5;exitY=1.01;entryX=0.5;entryY=0;rounded=0;" edge="1" parent="1" source="2cJFYLZIkoP5e17FHalm-6" target="2cJFYLZIkoP5e17FHalm-8">
          <mxGeometry relative="1" as="geometry">
            <Array as="points" />
          </mxGeometry>
        </mxCell>
        <mxCell id="2cJFYLZIkoP5e17FHalm-27" value="" style="curved=1;startArrow=none;endArrow=block;exitX=0.13;exitY=1;entryX=0.5;entryY=0.01;rounded=0;" edge="1" parent="1" source="2cJFYLZIkoP5e17FHalm-5" target="2cJFYLZIkoP5e17FHalm-7">
          <mxGeometry relative="1" as="geometry">
            <Array as="points">
              <mxPoint x="1614" y="287" />
            </Array>
          </mxGeometry>
        </mxCell>
        <mxCell id="2cJFYLZIkoP5e17FHalm-28" value="" style="curved=1;startArrow=none;endArrow=block;exitX=0.5;exitY=1;entryX=0.5;entryY=0.01;rounded=0;" edge="1" parent="1" source="2cJFYLZIkoP5e17FHalm-8" target="2cJFYLZIkoP5e17FHalm-9">
          <mxGeometry relative="1" as="geometry">
            <Array as="points" />
          </mxGeometry>
        </mxCell>
        <mxCell id="2cJFYLZIkoP5e17FHalm-29" value="" style="curved=1;startArrow=none;endArrow=block;exitX=0.5;exitY=1.01;entryX=0.5;entryY=0;rounded=0;" edge="1" parent="1" source="2cJFYLZIkoP5e17FHalm-7" target="2cJFYLZIkoP5e17FHalm-10">
          <mxGeometry relative="1" as="geometry">
            <Array as="points" />
          </mxGeometry>
        </mxCell>
        <mxCell id="2cJFYLZIkoP5e17FHalm-30" value="" style="curved=1;startArrow=none;endArrow=block;exitX=0.5;exitY=1;entryX=0.5;entryY=0;rounded=0;" edge="1" parent="1" source="2cJFYLZIkoP5e17FHalm-10" target="2cJFYLZIkoP5e17FHalm-11">
          <mxGeometry relative="1" as="geometry">
            <Array as="points" />
          </mxGeometry>
        </mxCell>
        <mxCell id="2cJFYLZIkoP5e17FHalm-31" value="" style="curved=1;startArrow=none;endArrow=block;exitX=0.33;exitY=1;entryX=0.5;entryY=0;rounded=0;" edge="1" parent="1" source="2cJFYLZIkoP5e17FHalm-13" target="2cJFYLZIkoP5e17FHalm-12">
          <mxGeometry relative="1" as="geometry">
            <Array as="points">
              <mxPoint x="931" y="287" />
            </Array>
          </mxGeometry>
        </mxCell>
        <mxCell id="2cJFYLZIkoP5e17FHalm-32" value="" style="curved=1;startArrow=none;endArrow=block;exitX=0.69;exitY=1;entryX=0.5;entryY=0;rounded=0;" edge="1" parent="1" source="2cJFYLZIkoP5e17FHalm-13" target="2cJFYLZIkoP5e17FHalm-15">
          <mxGeometry relative="1" as="geometry">
            <Array as="points">
              <mxPoint x="1255" y="287" />
            </Array>
          </mxGeometry>
        </mxCell>
        <mxCell id="2cJFYLZIkoP5e17FHalm-33" value="" style="curved=1;startArrow=none;endArrow=block;exitX=0.23;exitY=1;entryX=1;entryY=0.22;rounded=0;" edge="1" parent="1" source="2cJFYLZIkoP5e17FHalm-13" target="2cJFYLZIkoP5e17FHalm-20">
          <mxGeometry relative="1" as="geometry">
            <Array as="points">
              <mxPoint x="849" y="287" />
              <mxPoint x="849" y="640" />
            </Array>
          </mxGeometry>
        </mxCell>
        <mxCell id="2cJFYLZIkoP5e17FHalm-34" value="" style="curved=1;startArrow=none;endArrow=block;exitX=0.5;exitY=1;entryX=0;entryY=0.05;rounded=0;" edge="1" parent="1" source="2cJFYLZIkoP5e17FHalm-12" target="2cJFYLZIkoP5e17FHalm-14">
          <mxGeometry relative="1" as="geometry">
            <Array as="points">
              <mxPoint x="931" y="968" />
            </Array>
          </mxGeometry>
        </mxCell>
        <mxCell id="2cJFYLZIkoP5e17FHalm-35" value="" style="curved=1;startArrow=none;endArrow=block;exitX=0.5;exitY=1;entryX=0.5;entryY=0;rounded=0;" edge="1" parent="1" source="2cJFYLZIkoP5e17FHalm-15" target="2cJFYLZIkoP5e17FHalm-16">
          <mxGeometry relative="1" as="geometry">
            <Array as="points" />
          </mxGeometry>
        </mxCell>
        <mxCell id="2cJFYLZIkoP5e17FHalm-36" value="" style="curved=1;startArrow=none;endArrow=block;exitX=0.5;exitY=1;entryX=0.71;entryY=0;rounded=0;" edge="1" parent="1" source="2cJFYLZIkoP5e17FHalm-16" target="2cJFYLZIkoP5e17FHalm-14">
          <mxGeometry relative="1" as="geometry">
            <Array as="points">
              <mxPoint x="1255" y="968" />
            </Array>
          </mxGeometry>
        </mxCell>
        <mxCell id="2cJFYLZIkoP5e17FHalm-37" value="" style="curved=1;startArrow=none;endArrow=block;exitX=0.67;exitY=1;entryX=1;entryY=0.15;rounded=0;" edge="1" parent="1" source="2cJFYLZIkoP5e17FHalm-11" target="2cJFYLZIkoP5e17FHalm-17">
          <mxGeometry relative="1" as="geometry">
            <Array as="points">
              <mxPoint x="1686" y="1096" />
              <mxPoint x="1686" y="1121" />
            </Array>
          </mxGeometry>
        </mxCell>
        <mxCell id="2cJFYLZIkoP5e17FHalm-38" value="" style="curved=1;startArrow=none;endArrow=block;exitX=0.33;exitY=1;entryX=1;entryY=0.44;rounded=0;" edge="1" parent="1" source="2cJFYLZIkoP5e17FHalm-11" target="2cJFYLZIkoP5e17FHalm-23">
          <mxGeometry relative="1" as="geometry">
            <Array as="points">
              <mxPoint x="1541" y="1096" />
              <mxPoint x="1541" y="1121" />
            </Array>
          </mxGeometry>
        </mxCell>
        <mxCell id="2cJFYLZIkoP5e17FHalm-39" value="" style="curved=1;startArrow=none;endArrow=block;exitX=0;exitY=0.95;entryX=0.5;entryY=0;rounded=0;" edge="1" parent="1" source="2cJFYLZIkoP5e17FHalm-14" target="2cJFYLZIkoP5e17FHalm-17">
          <mxGeometry relative="1" as="geometry">
            <Array as="points">
              <mxPoint x="926" y="1096" />
            </Array>
          </mxGeometry>
        </mxCell>
        <mxCell id="2cJFYLZIkoP5e17FHalm-40" value="" style="curved=1;startArrow=none;endArrow=block;exitX=0.63;exitY=1;entryX=0.43;entryY=0;rounded=0;" edge="1" parent="1" source="2cJFYLZIkoP5e17FHalm-14" target="2cJFYLZIkoP5e17FHalm-19">
          <mxGeometry relative="1" as="geometry">
            <Array as="points">
              <mxPoint x="1223" y="1096" />
              <mxPoint x="1223" y="1121" />
            </Array>
          </mxGeometry>
        </mxCell>
        <mxCell id="2cJFYLZIkoP5e17FHalm-41" value="" style="curved=1;startArrow=none;endArrow=block;exitX=0.65;exitY=1;entryX=0.5;entryY=0;rounded=0;" edge="1" parent="1" source="2cJFYLZIkoP5e17FHalm-17" target="2cJFYLZIkoP5e17FHalm-18">
          <mxGeometry relative="1" as="geometry">
            <Array as="points">
              <mxPoint x="1095" y="1449" />
            </Array>
          </mxGeometry>
        </mxCell>
        <mxCell id="2cJFYLZIkoP5e17FHalm-42" value="" style="curved=1;startArrow=none;endArrow=block;exitX=0.43;exitY=1;entryX=1;entryY=0.22;rounded=0;" edge="1" parent="1" source="2cJFYLZIkoP5e17FHalm-17" target="2cJFYLZIkoP5e17FHalm-22">
          <mxGeometry relative="1" as="geometry">
            <Array as="points">
              <mxPoint x="849" y="1449" />
            </Array>
          </mxGeometry>
        </mxCell>
        <mxCell id="2cJFYLZIkoP5e17FHalm-43" value="" style="curved=1;startArrow=none;endArrow=block;exitX=0.76;exitY=0;entryX=0.89;entryY=1;rounded=0;" edge="1" parent="1" source="2cJFYLZIkoP5e17FHalm-19" target="2cJFYLZIkoP5e17FHalm-14">
          <mxGeometry relative="1" as="geometry">
            <Array as="points">
              <mxPoint x="1332" y="1121" />
              <mxPoint x="1332" y="1096" />
            </Array>
          </mxGeometry>
        </mxCell>
        <mxCell id="2cJFYLZIkoP5e17FHalm-44" value="" style="curved=1;startArrow=none;endArrow=block;exitX=0.5;exitY=1;entryX=0.5;entryY=0.01;rounded=0;" edge="1" parent="1" source="2cJFYLZIkoP5e17FHalm-20" target="2cJFYLZIkoP5e17FHalm-21">
          <mxGeometry relative="1" as="geometry">
            <Array as="points" />
          </mxGeometry>
        </mxCell>
        <mxCell id="2cJFYLZIkoP5e17FHalm-45" value="" style="curved=1;startArrow=none;endArrow=block;exitX=0.62;exitY=1.01;entryX=0.22;entryY=0;rounded=0;" edge="1" parent="1" source="2cJFYLZIkoP5e17FHalm-21" target="2cJFYLZIkoP5e17FHalm-17">
          <mxGeometry relative="1" as="geometry">
            <Array as="points">
              <mxPoint x="619" y="1096" />
              <mxPoint x="619" y="1121" />
            </Array>
          </mxGeometry>
        </mxCell>
        <mxCell id="2cJFYLZIkoP5e17FHalm-46" value="" style="curved=1;startArrow=none;endArrow=block;exitX=0.38;exitY=1.01;entryX=1;entryY=0.24;rounded=0;" edge="1" parent="1" source="2cJFYLZIkoP5e17FHalm-21" target="2cJFYLZIkoP5e17FHalm-23">
          <mxGeometry relative="1" as="geometry">
            <Array as="points">
              <mxPoint x="505" y="1096" />
              <mxPoint x="505" y="1121" />
            </Array>
          </mxGeometry>
        </mxCell>
        <mxCell id="2cJFYLZIkoP5e17FHalm-47" value="" style="curved=1;startArrow=none;endArrow=block;exitX=0.5;exitY=1;entryX=0.5;entryY=0.01;rounded=0;" edge="1" parent="1" source="2cJFYLZIkoP5e17FHalm-23" target="2cJFYLZIkoP5e17FHalm-24">
          <mxGeometry relative="1" as="geometry">
            <Array as="points" />
          </mxGeometry>
        </mxCell>
        <mxCell id="2cJFYLZIkoP5e17FHalm-48" value="" style="curved=1;startArrow=none;endArrow=block;exitX=0.5;exitY=1.01;entryX=0.13;entryY=0.01;rounded=0;" edge="1" parent="1" source="2cJFYLZIkoP5e17FHalm-24" target="2cJFYLZIkoP5e17FHalm-6">
          <mxGeometry relative="1" as="geometry">
            <Array as="points">
              <mxPoint x="194" y="1777" />
              <mxPoint x="1557" y="1802" />
            </Array>
          </mxGeometry>
        </mxCell>
      </root>
    </mxGraphModel>
  </diagram>
</mxfile>
